<?xml version="1.0" standalone="no"?><!DOCTYPE svg PUBLIC "-//W3C//DTD SVG 1.1//EN"
        "http://www.w3.org/Graphics/SVG/1.1/DTD/svg11.dtd">
<svg class="icon" width="200px" height="200.00px" viewBox="0 0 1024 1024" version="1.1"
     xmlns="http://www.w3.org/2000/svg">
    <path d="M393.770667 132.224A64 64 0 0 1 455.424 85.333333h180.906667a64 64 0 0 1 61.653333 46.890667l21.845333 78.506667 78.933334-20.352a64 64 0 0 1 71.424 29.952l90.453333 156.672a64 64 0 0 1-9.813333 76.8L893.781333 512l57.130667 58.154667a64 64 0 0 1 9.770667 76.842666l-90.453334 156.672a64 64 0 0 1-71.424 29.952l-78.933333-20.352-21.845333 78.506667A64 64 0 0 1 636.330667 938.666667h-180.906667a64 64 0 0 1-61.653333-46.890667l-21.802667-78.506667-78.933333 20.352a64 64 0 0 1-71.424-29.952l-90.453334-156.672a64 64 0 0 1 9.770667-76.8L197.973333 512l-57.088-58.154667a64 64 0 0 1-9.770666-76.842666l90.453333-156.672a64 64 0 0 1 71.424-29.952l78.933333 20.352 21.76-78.506667z m-27.434667 660.864zM471.637333 170.666667l-23.04 83.072a64 64 0 0 1-77.696 44.842666l-83.498666-21.546666-74.24 128.597333 60.416 61.525333a64 64 0 0 1 0 89.685334l-60.416 61.525333 74.24 128.597333 83.498666-21.546666a64 64 0 0 1 77.653334 44.8L471.637333 853.333333h148.48l23.082667-83.114666a64 64 0 0 1 77.653333-44.8l83.498667 21.546666 74.24-128.597333-60.416-61.525333a64 64 0 0 1 0-89.685334l60.416-61.525333-74.24-128.597333L720.853333 298.666667a64 64 0 0 1-77.653333-44.842667L620.117333 170.666667h-148.48z m74.24 256a85.333333 85.333333 0 1 0 0 170.666666 85.333333 85.333333 0 0 0 0-170.666666z m-170.666666 85.333333a170.666667 170.666667 0 1 1 341.333333 0 170.666667 170.666667 0 0 1-341.333333 0z"></path>
</svg>