<?xml version="1.0" standalone="no"?><!DOCTYPE svg PUBLIC "-//W3C//DTD SVG 1.1//EN" "http://www.w3.org/Graphics/SVG/1.1/DTD/svg11.dtd"><svg t="1744622231549" class="icon" viewBox="0 0 1024 1024" version="1.1" xmlns="http://www.w3.org/2000/svg" p-id="2038" xmlns:xlink="http://www.w3.org/1999/xlink" width="200" height="200"><path d="M992.243451 474.49349l-56.32-115.83247a17.327686 17.327686 0 0 1 0-15.159216l47.505569-97.701647a17.367843 17.367843 0 0 0-15.661177-24.937412H311.323608v783.058824h655.841882a17.367843 17.367843 0 0 0 15.661177-24.937412l-46.903216-96.436706a17.327686 17.327686 0 0 1 0-15.159216l56.32-115.792313a17.327686 17.327686 0 0 0 0-15.179295l-56.32-115.792313a17.327686 17.327686 0 0 1 0-15.179294l56.32-115.792314a17.327686 17.327686 0 0 0 0-15.159216z" fill="#7BABD7" p-id="2039"></path><path d="M935.923451 620.624314a17.327686 17.327686 0 0 1 0-15.179294l56.32-115.792314a17.327686 17.327686 0 0 0 0-15.159216l-56.32-115.83247a17.327686 17.327686 0 0 1 0-15.159216l47.505569-97.701647a17.367843 17.367843 0 0 0-15.661177-24.937412h-89.790745c12.850196 0 21.283137 13.412392 15.661177 24.937412l-47.505569 97.701647a17.327686 17.327686 0 0 0 0 15.159216l56.32 115.83247a17.327686 17.327686 0 0 1 0 15.159216l-56.32 115.792314a17.327686 17.327686 0 0 0 0 15.179294l56.32 115.792313a17.327686 17.327686 0 0 1 0 15.179295L846.132706 867.388235a17.327686 17.327686 0 0 0 0 15.159216l43.409569 89.248627H311.323608V1003.921569h655.841882a17.367843 17.367843 0 0 0 15.661177-24.937412l-5.180236-10.641569-41.72298-85.795137a17.327686 17.327686 0 0 1 0-15.159216l56.32-115.792313a17.327686 17.327686 0 0 0 0-15.179295l-56.32-115.792313z" fill="#6290BA" p-id="2040"></path><path d="M413.824 1024H123.670588A93.465098 93.465098 0 0 1 30.225569 930.514824V118.422588A98.324078 98.324078 0 0 1 128.50949 20.078431h285.31451A98.324078 98.324078 0 0 1 512.107922 118.422588v807.233255A98.324078 98.324078 0 0 1 413.824 1024z" fill="#7BABD7" p-id="2041"></path><path d="M413.803922 20.580392h-91.115922a98.243765 98.243765 0 0 1 98.263843 98.243765v806.430118a98.243765 98.243765 0 0 1-98.263843 98.243764h91.115922a98.243765 98.243765 0 0 0 98.263843-98.243764V118.824157a98.243765 98.243765 0 0 0-98.263843-98.243765z" fill="#6290BA" p-id="2042"></path><path d="M396.616784 1023.498039H123.750902a93.404863 93.404863 0 1 1 0-186.789647h272.865882a93.404863 93.404863 0 1 1 0 186.789647z" fill="#7BABD7" p-id="2043"></path><path d="M954.696784 616.588549a2.951529 2.951529 0 0 1 0-2.570039l56.159373-116.756079a32.145569 32.145569 0 0 0 0-28.009411l-56.159373-116.776157a2.951529 2.951529 0 0 1 0-2.570039l47.385098-98.504785a32.145569 32.145569 0 0 0-1.666509-31.041255 31.563294 31.563294 0 0 0-26.945255-15.058823H831.957333a14.516706 14.516706 0 0 0-14.45647 14.576941c0 8.051451 6.465255 14.576941 14.45647 14.576941h141.492706c1.325176 0 2.068078 0.742902 2.449569 1.385412 0.401569 0.622431 0.742902 1.606275 0.160627 2.831059l-47.385098 98.504784a32.145569 32.145569 0 0 0 0 28.009412l56.179451 116.796235c0.401569 0.803137 0.401569 1.746824 0 2.549961l-56.179451 116.776157a32.145569 32.145569 0 0 0 0 28.009412l56.179451 116.756078c0.401569 0.803137 0.401569 1.746824 0 2.570039L928.695216 865.380392a32.145569 32.145569 0 0 0 0 28.009412l46.782745 97.239843c0.582275 1.204706 0.240941 2.208627-0.160628 2.81098a2.790902 2.790902 0 0 1-2.469647 1.405491H476.227765l0.080313-0.100393c1.325176-1.204706 2.610196-2.469647 3.895216-3.754666l1.264941-1.345255a110.431373 110.431373 0 0 0 2.509804-2.670431l1.445647-1.686589c0.722824-0.843294 1.445647-1.66651 2.148392-2.529882 0.501961-0.602353 0.963765-1.244863 1.445647-1.887373 0.662588-0.823216 1.305098-1.646431 1.92753-2.509804l1.40549-2.007843c0.602353-0.843294 1.204706-1.686588 1.766902-2.54996l1.345255-2.128314a112.338824 112.338824 0 0 0 7.830588-14.858039 112.90102 112.90102 0 0 0 4.899137-13.57302c0.240941-0.803137 0.481882-1.646431 0.682667-2.469647 0.281098-1.003922 0.522039-2.068078 0.762981-3.092078 0.200784-0.823216 0.401569-1.646431 0.562196-2.489726 0.240941-1.064157 0.421647-2.148392 0.602353-3.212549 0.160627-0.823216 0.321255-1.646431 0.441725-2.469647 0.200784-1.124392 0.321255-2.288941 0.461804-3.433412 0.100392-0.783059 0.220863-1.546039 0.301176-2.329098 0.140549-1.28502 0.220863-2.610196 0.321255-3.895216l0.140549-1.967686c0.100392-1.967686 0.160627-3.935373 0.160628-5.943215V234.455843h229.49647c7.971137 0 14.436392-6.52549 14.436393-14.576941 0-8.031373-6.465255-14.576941-14.456471-14.576941H512.629961V112.037647c0-61.781333-49.814588-112.037647-111.033726-112.037647H121.180863C59.941647 0 10.147137 50.256314 10.147137 112.037647v515.092078c0 8.031373 6.445176 14.576941 14.436392 14.576942 7.971137 0 14.456471-6.52549 14.456471-14.576942V112.037647c0-45.718588 36.843922-82.883765 82.120784-82.883765h280.395294c45.31702 0 82.160941 37.165176 82.160942 82.883765v765.972078c-15.440314-40.016314-54.01098-68.447373-99.046902-68.447372H116.442353c-30.499137 0-58.006588 13.05098-77.402353 33.852235v-124.466196c0-8.031373-6.465255-14.576941-14.456471-14.576941a14.516706 14.516706 0 0 0-14.436392 14.576941v193.034039l0.060236 2.409412c0 0.803137-0.060235 1.586196-0.060236 2.389333C10.147137 975.892078 57.833412 1024 116.422275 1024h856.425411c11.043137 0 21.102431-5.621961 26.945255-15.058824 5.862902-9.436863 6.485333-21.022118 1.66651-31.021176l-46.782745-97.239843a2.951529 2.951529 0 0 1 0-2.549961l56.179451-116.776157a32.145569 32.145569 0 0 0 0-28.009412l-56.159373-116.756078z m-570.026666 378.277647H121.200941c-44.513882 0-80.835765-35.900235-82.100706-80.494431 1.264941-41.923765 35.45851-75.675608 77.32204-75.675608h268.247843c42.686745 0 77.402353 35.036863 77.402353 78.085019 0 43.048157-34.735686 78.064941-77.402353 78.064942z" fill="#000000" p-id="2044"></path><path d="M381.798902 863.372549H106.483451c-15.400157 0-29.776314 6.565647-40.478118 18.472157a62.223059 62.223059 0 0 0-15.661176 44.072157C51.468549 958.403765 76.606745 983.843137 107.527529 983.843137h274.271373c8.171922 0 14.817882-7.107765 14.817882-15.882039 0-8.794353-6.625882-15.902118-14.83796-15.902118H107.527529c-14.657255 0-27.00549-12.247843-27.527529-27.346823a29.394824 29.394824 0 0 1 7.408941-20.821333c5.059765-5.621961 11.846275-8.734118 19.114667-8.734118h275.275294c7.629804 0 14.938353 3.553882 19.998118 9.738039 0.220863 0.281098 0.562196 0.702745 0.160627 1.66651-0.481882 1.164549-1.305098 1.164549-1.606274 1.164549h-127.437804c-8.192 0-14.837961 7.107765-14.837961 15.861961 0 8.794353 6.625882 15.902118 14.837961 15.902117h127.437804c12.468706 0 23.451608-7.589647 28.611764-19.797333a34.816 34.816 0 0 0-4.85898-35.719529c-10.701804-13.091137-26.101961-20.600471-42.305255-20.600471z" fill="#000000" p-id="2045"></path></svg>