<?xml version="1.0" ?><svg viewBox="0 0 64 64" xmlns="http://www.w3.org/2000/svg"><g data-name="27-cat" id="_27-cat"><polygon points="39.62 12 24.25 12 27.07 8 36.85 8 39.62 12" style="fill:#eb2335"/><polygon points="36.85 8 27.07 8 32 1 36.85 8" style="fill:#009e60"/><polygon points="41 14 41.04 14.06 37 17 32 17 27 17 22.85 13.98 23.06 13.69 24.25 12 39.62 12 41 14" style="fill:#009e60"/><circle cx="32" cy="46" r="1" style="fill:#9b6b2b"/><path d="M42,42s-1,5-5,5l-.1-.01A4.619,4.619,0,0,0,37,46a5,5,0,0,0-5-5h7A4.941,4.941,0,0,1,42,42Z" style="fill:#009e60"/><path d="M32,47a1,1,0,1,0-1-1A1,1,0,0,0,32,47Zm0,4a4.941,4.941,0,0,1-3-1,5.015,5.015,0,0,1-1.9-3.01A4.619,4.619,0,0,1,27,46a5,5,0,0,1,10,0,4.619,4.619,0,0,1-.1.99A5.015,5.015,0,0,1,35,50,4.941,4.941,0,0,1,32,51Z" style="fill:#ffd45d"/><path d="M27,46a4.619,4.619,0,0,0,.1.99L27,47c-4,0-5-5-5-5a4.941,4.941,0,0,1,3-1h7A5,5,0,0,0,27,46Z" style="fill:#009e60"/><path d="M23,17H20a4,4,0,0,0-4,4V9S19,17,23,17Z" style="fill:#ffa1a1"/><path d="M48,9V21a4,4,0,0,0-4-4H41C45,17,48,9,48,9Z" style="fill:#ffa1a1"/><path d="M37,17l4.04-2.94L48,9s-3,8-7,8Z" style="fill:#333940"/><path d="M27,17H23c-4,0-7-8-7-8l6.85,4.98Z" style="fill:#333940"/><path d="M22,42a5.01,5.01,0,0,0-2,4v7H14.13A3.657,3.657,0,0,1,14,52,10.994,10.994,0,0,1,25,41,4.941,4.941,0,0,0,22,42Z" style="fill:#c22026"/><path d="M39,41A10.994,10.994,0,0,1,50,52a3.657,3.657,0,0,1-.13,1H44V46a5.01,5.01,0,0,0-2-4A4.941,4.941,0,0,0,39,41Z" style="fill:#c22026"/><path d="M44,53h5.87a3.827,3.827,0,0,1-.41,1,4.225,4.225,0,0,1-.63.83A4.025,4.025,0,0,1,46,56H44Z" style="fill:#ebebff"/><path d="M14.13,53H20v3H18a4.025,4.025,0,0,1-2.83-1.17A4.078,4.078,0,0,1,14.13,53Z" style="fill:#ebebff"/><path d="M35,57h9a5.361,5.361,0,0,1-.09.99A6,6,0,0,1,38,63H26a6,6,0,0,1-6-6H35Z" style="fill:#414952"/><path d="M29,57V50a4.941,4.941,0,0,0,3,1v6Z" style="fill:#ebebff"/><path d="M32,51a4.941,4.941,0,0,0,3-1v7H32Z" style="fill:#ebebff"/><path d="M29,50v7H20V46a5.01,5.01,0,0,1,2-4s1,5,5,5l.1-.01A5.015,5.015,0,0,0,29,50Z" style="fill:#eb2335"/><path d="M44,56v1H35V50a5.015,5.015,0,0,0,1.9-3.01L37,47c4,0,5-5,5-5a5.01,5.01,0,0,1,2,4V56Z" style="fill:#eb2335"/><path d="M48,21V31a17.8,17.8,0,0,1-7.14-1.47A7.82,7.82,0,0,0,41,28c0-1.66-.45-3-1-3s-1,1.34-1,3c0,.2.01.4.02.59A13.579,13.579,0,0,1,32,17H44A4,4,0,0,1,48,21Z" style="fill:#414952"/><path d="M32,17a13.579,13.579,0,0,1-7.02,11.59c.01-.19.02-.39.02-.59,0-1.66-.45-3-1-3s-1,1.34-1,3a7.82,7.82,0,0,0,.14,1.53A17.8,17.8,0,0,1,16,31V21a4,4,0,0,1,4-4H32Z" style="fill:#414952"/><path d="M46,56a4.025,4.025,0,0,0,2.83-1.17,4.225,4.225,0,0,0,.63-.83H52a2.006,2.006,0,0,0,2-2V39a4,4,0,0,1,4-4h2a2.006,2.006,0,0,1,2,2,2.015,2.015,0,0,1-2,2H59a1,1,0,0,0-1,1V52a6,6,0,0,1-6,6H44l-.09-.01A5.361,5.361,0,0,0,44,57V56Z" style="fill:#414952"/><path d="M32,34a1.411,1.411,0,0,0,1.19-.54l.66-.98c.47-.68-.22-1.48-1.28-1.48H31.43c-1.06,0-1.75.8-1.28,1.48l.66.98A1.411,1.411,0,0,0,32,34Zm0,7H22a6,6,0,0,1-6-6V31a17.8,17.8,0,0,0,7.14-1.47c.18.88.5,1.47.86,1.47.48,0,.89-1.04.98-2.41A13.579,13.579,0,0,0,32,17a13.579,13.579,0,0,0,7.02,11.59c.09,1.37.5,2.41.98,2.41.36,0,.68-.59.86-1.47A17.8,17.8,0,0,0,48,31v4a6,6,0,0,1-6,6H32Z" style="fill:#f7f7ff"/><ellipse cx="40" cy="28" rx="1" ry="3" style="fill:#414952"/><ellipse cx="24" cy="28" rx="1" ry="3" style="fill:#414952"/><path d="M31.43,31h1.14c1.06,0,1.75.8,1.28,1.48l-.66.98a1.581,1.581,0,0,1-2.38,0l-.66-.98C29.68,31.8,30.37,31,31.43,31Z" style="fill:#ffa1a1"/><path d="M44,17H32a12.475,12.475,0,0,0,.167,2H44a4,4,0,0,1,4,4V21A4,4,0,0,0,44,17Z" style="fill:#555a66"/><path d="M20,19H31.833A12.475,12.475,0,0,0,32,17H20a4,4,0,0,0-4,4v2A4,4,0,0,1,20,19Z" style="fill:#555a66"/><path d="M42,39H22a6,6,0,0,1-6-6v2a6,6,0,0,0,6,6H42a6,6,0,0,0,6-6V33A6,6,0,0,1,42,39Z" style="fill:#ccf"/><path d="M32,48a4.987,4.987,0,0,1-4.747-3.5,5,5,0,1,0,9.494,0A4.987,4.987,0,0,1,32,48Z" style="fill:#f0af4c"/><path d="M33.5,41.673a5.167,5.167,0,0,0-1.4.014,3.162,3.162,0,0,0-1.608.641c-.269.22-.622.62-.33.937a2.048,2.048,0,0,0,1.218.437,11.864,11.864,0,0,1,2.732.561,2.368,2.368,0,0,0,1.4.341.724.724,0,0,0,.4-.2c.461-.526-.307-1.4-.682-1.767a3.693,3.693,0,0,0-1.339-.867A2.388,2.388,0,0,0,33.5,41.673Z" style="fill:#faf180"/><path d="M16,9v2.481a11.718,11.718,0,0,0,1.788,3.9A1,1,0,0,1,17,17H16v4a4,4,0,0,1,4-4h3C19,17,16,9,16,9Z" style="fill:#e06a6a"/><path d="M46.1,15.385A12.275,12.275,0,0,0,48,11V9s-3,8-7,8h3a4,4,0,0,1,4,4V17H46.88A1,1,0,0,1,46.1,15.385Z" style="fill:#e06a6a"/><path d="M27.672,11.387,29.083,8H27.07l-2.82,4h3.257A2.627,2.627,0,0,1,27.672,11.387Z" style="fill:#ff4f5f"/><path d="M36.328,11.387a2.627,2.627,0,0,1,.165.613H39.62L36.85,8H34.917Z" style="fill:#ff4f5f"/><polygon points="36.85 8 32 1 34.917 8 36.85 8" style="fill:#00c477"/><polygon points="32 1 27.07 8 29.083 8 32 1" style="fill:#00c477"/><path d="M35.949,14H41l-1.38-2H36.493A2.6,2.6,0,0,1,35.949,14Z" style="fill:#00c477"/><path d="M35.949,14a2.461,2.461,0,0,1-.185.236h0A2.61,2.61,0,0,1,33.919,15H30.081a2.61,2.61,0,0,1-1.845-.764h0A2.461,2.461,0,0,1,28.051,14H22.878L27,17H37l4.04-2.94L41,14Z" style="fill:#00613b"/><path d="M27.507,12H24.25l-1.19,1.69-.21.29.028.02h5.173A2.6,2.6,0,0,1,27.507,12Z" style="fill:#00c477"/><path d="M46,45a1.991,1.991,0,0,1,.37-1.153A10.95,10.95,0,0,0,39,41a4.941,4.941,0,0,1,3,1,5.01,5.01,0,0,1,2,4v7h2Z" style="fill:#911a1c"/><path d="M46,53H44v3h2a4,4,0,0,0,2.622-1H48A2,2,0,0,1,46,53Z" style="fill:#ccf"/><path d="M18,45v7.985l1.954.02.072-7a5.006,5.006,0,0,1,2.04-3.979,4.936,4.936,0,0,1,3.01-.969,10.942,10.942,0,0,0-7.435,2.8A1.986,1.986,0,0,1,18,45Z" style="fill:#911a1c"/><path d="M18,53a2,2,0,0,1-2,2h-.637a3.994,3.994,0,0,0,2.561.984l2,.021.031-3L18,52.985Z" style="fill:#ccf"/><path d="M60,37H58a2,2,0,0,0-2,2V53a3,3,0,0,1-3,3,2,2,0,0,1-2-2H49.46a4.225,4.225,0,0,1-.63.83A4.025,4.025,0,0,1,46,56H44v1a5.361,5.361,0,0,1-.09.99L44,58h8a6,6,0,0,0,6-6V40a1,1,0,0,1,1-1h1a1.985,1.985,0,0,0,1.722-3A1.993,1.993,0,0,1,60,37Z" style="fill:#2a2e33"/><path d="M32,61c5.228,0,9.657-1.67,11.3-4H20.7C22.343,59.33,26.772,61,32,61Z" style="fill:none"/><path d="M32,61c-5.228,0-9.657-1.67-11.3-4H20a6,6,0,0,0,6,6H38a6,6,0,0,0,6-6h-.7C41.657,59.33,37.228,61,32,61Z" style="fill:#2a2e33"/><path d="M40.642,41.277c-.177.591-.407,1.3-.67,1.961a1,1,0,0,1-1.742.212A6.034,6.034,0,0,0,33,41H32a5,5,0,0,1,5,5,4.619,4.619,0,0,1-.1.99L37,47c4,0,5-5,5-5A4.88,4.88,0,0,0,40.642,41.277Z" style="fill:#007145"/><path d="M25.77,43.45a1,1,0,0,1-1.742-.212c-.263-.661-.493-1.37-.67-1.961A4.88,4.88,0,0,0,22,42s1,5,5,5l.1-.01A4.619,4.619,0,0,1,27,46a5,5,0,0,1,5-5H31A6.034,6.034,0,0,0,25.77,43.45Z" style="fill:#007145"/><path d="M27.1,46.99,27,47c-4,0-5-5-5-5a5.03,5.03,0,0,0-1.595,2.05A11.986,11.986,0,0,0,29,52.607V50A5.015,5.015,0,0,1,27.1,46.99Z" style="fill:#c22026"/><path d="M43.6,44.05A5.03,5.03,0,0,0,42,42s-1,5-5,5l-.1-.01A5.015,5.015,0,0,1,35,50v2.607A11.986,11.986,0,0,0,43.6,44.05Z" style="fill:#c22026"/><path d="M33,50.89a4.6,4.6,0,0,1-2,0A4.911,4.911,0,0,1,29,50v2a4.911,4.911,0,0,0,2,.89,4.6,4.6,0,0,0,2,0A4.911,4.911,0,0,0,35,52V50A4.911,4.911,0,0,1,33,50.89Z" style="fill:#ccf"/><rect height="2" rx="1" ry="1" style="fill:#636978" width="10" x="20" y="17"/><rect height="2" rx="1" ry="1" style="fill:#636978" width="8" x="33" y="17"/><rect height="2" rx="1" ry="1" style="fill:#636978" width="3" x="42" y="17"/><path d="M25,41a4.941,4.941,0,0,0-3,1,5.01,5.01,0,0,0-2,4V57a6,6,0,0,0,6,6H38a6,6,0,0,0,5.91-5.01A5.361,5.361,0,0,0,44,57V46a5.01,5.01,0,0,0-2-4,4.941,4.941,0,0,0-3-1" style="fill:none;stroke:#000;stroke-linejoin:round;stroke-width:2px"/><path d="M39.02,28.59C39.01,28.4,39,28.2,39,28c0-1.66.45-3,1-3s1,1.34,1,3a7.82,7.82,0,0,1-.14,1.53c-.18.88-.5,1.47-.86,1.47C39.52,31,39.11,29.96,39.02,28.59Z" style="fill:none;stroke:#000;stroke-linejoin:round;stroke-width:2px"/><path d="M23.14,29.53A7.82,7.82,0,0,1,23,28c0-1.66.45-3,1-3s1,1.34,1,3c0,.2-.01.4-.02.59C24.89,29.96,24.48,31,24,31,23.64,31,23.32,30.41,23.14,29.53Z" style="fill:none;stroke:#000;stroke-linejoin:round;stroke-width:2px"/><path d="M48,31v4a6,6,0,0,1-6,6H22a6,6,0,0,1-6-6V21a4,4,0,0,1,4-4H44a4,4,0,0,1,4,4Z" style="fill:none;stroke:#000;stroke-linejoin:round;stroke-width:2px"/><polyline points="37 17 41.04 14.06 48 9 48 21" style="fill:none;stroke:#000;stroke-linejoin:round;stroke-width:2px"/><path d="M48,9s-3,8-7,8" style="fill:none;stroke:#000;stroke-linejoin:round;stroke-width:2px"/><polyline points="27 17 22.85 13.98 16 9 16 21" style="fill:none;stroke:#000;stroke-linejoin:round;stroke-width:2px"/><path d="M16,9s3,8,7,8" style="fill:none;stroke:#000;stroke-linejoin:round;stroke-width:2px"/><polyline points="23.06 13.69 24.25 12 27.07 8 32 1 36.85 8 39.62 12 41 14" style="fill:none;stroke:#000;stroke-linejoin:round;stroke-width:2px"/><polyline points="24 12 24.25 12 39.62 12 40 12" style="fill:none;stroke:#000;stroke-linejoin:round;stroke-width:2px"/><polyline points="27 8 27.07 8 36.85 8 37 8" style="fill:none;stroke:#000;stroke-linejoin:round;stroke-width:2px"/><path d="M36,36a2,2,0,0,1-4,0,2,2,0,0,1-4,0" style="fill:none;stroke:#000;stroke-linejoin:round;stroke-width:2px"/><path d="M31.43,31h1.14c1.06,0,1.75.8,1.28,1.48l-.66.98a1.581,1.581,0,0,1-2.38,0l-.66-.98C29.68,31.8,30.37,31,31.43,31Z" style="fill:none;stroke:#000;stroke-linejoin:round;stroke-width:2px"/><line style="fill:none;stroke:#000;stroke-linejoin:round;stroke-width:2px" x1="32" x2="32" y1="34" y2="36"/><path d="M32,17a13.579,13.579,0,0,0,7.02,11.59,15.158,15.158,0,0,0,1.84.94A17.8,17.8,0,0,0,48,31" style="fill:none;stroke:#000;stroke-linejoin:round;stroke-width:2px"/><path d="M32,17a13.579,13.579,0,0,1-7.02,11.59,15.158,15.158,0,0,1-1.84.94A17.8,17.8,0,0,1,16,31" style="fill:none;stroke:#000;stroke-linejoin:round;stroke-width:2px"/><path d="M39,41A10.994,10.994,0,0,1,50,52a3.657,3.657,0,0,1-.13,1,3.827,3.827,0,0,1-.41,1,4.225,4.225,0,0,1-.63.83A4.025,4.025,0,0,1,46,56H44" style="fill:none;stroke:#000;stroke-linejoin:round;stroke-width:2px"/><path d="M25,41A10.994,10.994,0,0,0,14,52a3.657,3.657,0,0,0,.13,1,4.078,4.078,0,0,0,1.04,1.83A4.025,4.025,0,0,0,18,56h2" style="fill:none;stroke:#000;stroke-linejoin:round;stroke-width:2px"/><path d="M32,41a5,5,0,0,1,5,5,4.619,4.619,0,0,1-.1.99A5.015,5.015,0,0,1,35,50a5,5,0,0,1-6,0,5.015,5.015,0,0,1-1.9-3.01A4.619,4.619,0,0,1,27,46,5,5,0,0,1,32,41Z" style="fill:none;stroke:#000;stroke-linejoin:round;stroke-width:2px"/><circle cx="32" cy="46" r="1" style="fill:none;stroke:#000;stroke-linejoin:round;stroke-width:2px"/><line style="fill:none;stroke:#000;stroke-linejoin:round;stroke-width:2px" x1="32" x2="32" y1="47" y2="51"/><path d="M49,54h3a2.006,2.006,0,0,0,2-2V39a4,4,0,0,1,4-4h2a2.006,2.006,0,0,1,2,2,2.015,2.015,0,0,1-2,2H59a1,1,0,0,0-1,1V52a6,6,0,0,1-6,6H44" style="fill:none;stroke:#000;stroke-linejoin:round;stroke-width:2px"/><path d="M22,42s1,5,5,5" style="fill:none;stroke:#000;stroke-linejoin:round;stroke-width:2px"/><path d="M42,42s-1,5-5,5" style="fill:none;stroke:#000;stroke-linejoin:round;stroke-width:2px"/><line style="fill:none;stroke:#000;stroke-linejoin:round;stroke-width:2px" x1="29" x2="29" y1="57" y2="50"/><line style="fill:none;stroke:#000;stroke-linejoin:round;stroke-width:2px" x1="35" x2="35" y1="50" y2="57"/><line style="fill:none;stroke:#000;stroke-linejoin:round;stroke-width:2px" x1="32" x2="32" y1="51" y2="57"/><polyline points="14 53 14.13 53 20 53" style="fill:none;stroke:#000;stroke-linejoin:round;stroke-width:2px"/><polyline points="44 53 49.87 53 50 53" style="fill:none;stroke:#000;stroke-linejoin:round;stroke-width:2px"/><polyline points="20 57 29 57 32 57 35 57 44 57" style="fill:none;stroke:#000;stroke-linejoin:round;stroke-width:2px"/></g></svg>