<?xml version="1.0" standalone="no"?>
<svg xmlns="http://www.w3.org/2000/svg" viewBox="0 0 1024 1024" fill="currentColor">
  <path d="M512 64C264.6 64 64 264.6 64 512s200.6 448 448 448 448-200.6 448-448S759.4 64 512 64zm0 820c-205.4 0-372-166.6-372-372s166.6-372 372-372 372 166.6 372 372-166.6 372-372 372z"/>
  <path d="M616.9 488.2l-96.8-96.8 96.8-96.8c12.5-12.5 12.5-32.8 0-45.3s-32.8-12.5-45.3 0l-96.8 96.8-96.8-96.8c-12.5-12.5-32.8-12.5-45.3 0s-12.5 32.8 0 45.3l96.8 96.8-96.8 96.8c-12.5 12.5-12.5 32.8 0 45.3s32.8 12.5 45.3 0l96.8-96.8 96.8 96.8c12.5 12.5 32.8 12.5 45.3 0 12.5-12.5 12.5-32.8 0-45.3z"/>
</svg> 