<?xml version="1.0" standalone="no"?><!DOCTYPE svg PUBLIC "-//W3C//DTD SVG 1.1//EN"
        "http://www.w3.org/Graphics/SVG/1.1/DTD/svg11.dtd">
<svg class="icon" width="200px" height="200.00px" viewBox="0 0 1024 1024" version="1.1"
     xmlns="http://www.w3.org/2000/svg">
    <path d="M846.443 128H177.557A49.557 49.557 0 0 0 128 177.557V317.12l0.405 6.293a49.492 49.492 0 0 0 22.55 35.52l204.117 129.878 0.021 280.576c0 19.989 12.032 38.037 30.486 45.717l214.72 89.472 5.461 1.92a49.557 49.557 0 0 0 63.147-47.659l-0.043-370.026 204.181-129.878A49.536 49.536 0 0 0 896 317.12V177.557A49.557 49.557 0 0 0 846.443 128z m-16.534 66.048v114.027l-204.117 129.92-5.099 3.69a49.557 49.557 0 0 0-17.856 38.102v354.282L421.12 758.315l0.043-278.528-0.406-6.294a49.557 49.557 0 0 0-22.549-35.52l-204.16-129.962V194.048h635.861z"></path>
</svg>