<?xml version="1.0" standalone="no"?><!DOCTYPE svg PUBLIC "-//W3C//DTD SVG 1.1//EN"
        "http://www.w3.org/Graphics/SVG/1.1/DTD/svg11.dtd">
<svg class="icon" width="200px" height="200.00px" viewBox="0 0 1024 1024" version="1.1"
     xmlns="http://www.w3.org/2000/svg">
    <path d="M496 134.4a32 32 0 0 1 32 0l349.866667 202.026667a32 32 0 0 1 0 55.424l-80.085334 46.208 80.085334 46.250666a32 32 0 0 1 0 55.424l-80.085334 46.208 80.085334 46.208a32 32 0 0 1 0 55.466667l-349.866667 201.984a32 32 0 0 1-32 0l-349.866667-202.026667a32 32 0 0 1 0-55.381333L226.133333 585.898667 146.133333 539.733333a32 32 0 0 1 0-55.466666l80.085334-46.208-80.085334-46.208a32 32 0 0 1 0-55.466667l349.866667-201.984z m-205.781333 340.608L226.133333 512l285.866667 165.034667L797.866667 512l-64.085334-36.992-205.781333 118.826667a32 32 0 0 1-32 0l-205.781333-118.826667z m0 147.882667l-64.085334 36.992 285.866667 165.034666 285.866667-165.034666-64.085334-36.992-205.781333 118.826666a32 32 0 0 1-32 0L290.133333 622.890667zM226.133333 364.117333l285.866667 165.034667 285.866667-165.034667L512 199.082667 226.133333 364.117333z"></path>
</svg>