<?xml version="1.0" standalone="no"?><!DOCTYPE svg PUBLIC "-//W3C//DTD SVG 1.1//EN"
        "http://www.w3.org/Graphics/SVG/1.1/DTD/svg11.dtd">
<svg class="icon" width="200px" height="200.00px" viewBox="0 0 1024 1024" version="1.1"
     xmlns="http://www.w3.org/2000/svg">
    <path d="M486.144 107.093333a41.386667 41.386667 0 0 1 51.712 0l310.485333 248.405334a41.386667 41.386667 0 0 1 15.530667 32.298666v496.768a41.386667 41.386667 0 0 1-41.386667 41.386667H201.472a41.386667 41.386667 0 0 1-41.386667-41.386667V387.797333a41.386667 41.386667 0 0 1 15.530667-32.298666l310.485333-248.405334z m-243.2 736.042667h124.330667v-227.669333a41.386667 41.386667 0 0 1 41.386666-41.386667h206.976a41.386667 41.386667 0 0 1 41.386667 41.386667v227.669333h124.032V407.722667L512 192.426667 242.944 407.722667V843.093333z m331.306667 0v-186.24h-124.16v186.24h124.16z"></path>
</svg>